<?xml version="1.0" encoding="iso-8859-1"?>
<!-- Generator: Adobe Illustrator 19.0.0, SVG Export Plug-In . SVG Version: 6.00 Build 0)  -->
<svg version="1.1" id="Layer_1" xmlns="http://www.w3.org/2000/svg" xmlns:xlink="http://www.w3.org/1999/xlink" x="0px" y="0px"
	 viewBox="0 0 512 512" style="enable-background:new 0 0 512 512;" xml:space="preserve">
<g>
	<g>
		<path d="M424.923,168.923C424.923,75.779,349.144,0,256,0S87.077,75.779,87.077,168.923c0,89.364,69.755,162.731,157.674,168.539
			v40.497h-12.362c-6.213,0-11.249,5.036-11.249,11.249s5.036,11.249,11.249,11.249h12.362v37.672h-43.117
			c-16.736,0-32.462,6.516-44.272,18.341c-11.834,11.819-18.35,27.545-18.35,44.281c0,6.213,5.036,11.249,11.249,11.249H361.75
			c6.213,0,11.249-5.036,11.249-11.249c0-34.529-28.093-62.622-62.622-62.622h-43.128v-37.672h12.374
			c6.213,0,11.249-5.036,11.249-11.249s-5.036-11.249-11.249-11.249h-12.374v-40.497
			C355.168,331.653,424.923,258.287,424.923,168.923z M310.378,460.627c18.22,0,33.643,12.209,38.519,28.876H163.101
			c1.861-6.407,5.317-12.276,10.171-17.124c7.569-7.578,17.643-11.752,28.364-11.752H310.378z M256,315.349
			c-80.739,0-146.426-65.686-146.426-146.426S175.261,22.498,256,22.498s146.425,65.686,146.425,146.426
			S336.739,315.349,256,315.349z"/>
	</g>
</g>
<g>
	<g>
		<path d="M369.813,176.094c-11.815-18.033-32.457-27.732-53.89-25.301l-28.417,3.228c-0.814-1.718-1.767-3.367-2.849-4.929
			l17.005-23.004c7.327-9.919,11.2-21.528,11.2-33.569c0-31.403-25.509-56.953-56.863-56.953c-21.559,0-40.983,11.96-50.69,31.211
			s-7.776,41.979,5.042,59.314l17.032,23.034c-1.075,1.556-2.021,3.196-2.83,4.903l-28.467-3.237
			c-16.319-1.852-31.969,3.079-44.067,13.883c-12.204,10.898-19.203,26.419-19.203,42.581c0,9.8,2.664,19.596,7.704,28.333
			c10.23,17.725,28.825,28.395,49.093,28.395c1.086,0,2.178-0.03,3.271-0.092c21.527-1.216,40.246-14.254,48.852-34.024
			l11.425-26.239c0.949,0.081,1.906,0.13,2.872,0.13c0.942,0,1.876-0.048,2.807-0.123l11.424,26.231
			c9.16,21.044,29.132,34.118,52.126,34.118c20.484,0,38.84-10.614,49.101-28.392C382.271,216.925,381.628,194.126,369.813,176.094z
			 M221.107,220.891c-5.275,12.118-16.301,19.798-29.493,20.544c-13.187,0.745-25.005-5.642-31.609-17.085
			c-3.114-5.398-4.693-11.149-4.693-17.09c0-9.763,4.261-19.166,11.691-25.801c7.254-6.477,16.681-9.428,26.544-8.311l28.462,3.237
			c1.547,7.059,5.259,13.422,10.536,18.243L221.107,220.891z M260.927,180.251c-3.099,1.349-6.684,1.366-9.836-0.031
			c-4.494-1.958-7.397-6.393-7.397-11.297c0-0.476,0.021-0.876,0.066-1.223c0.007-0.049,0.012-0.099,0.018-0.15
			c0-0.003,0.001-0.008,0.002-0.011c0-0.003,0-0.006,0-0.009c0.001-0.012,0.003-0.024,0.005-0.036
			c0.369-3.36,2.153-6.451,4.915-8.492c2.133-1.583,4.668-2.419,7.335-2.419c2.661,0,5.187,0.83,7.327,2.416
			c2.754,2.031,4.548,5.129,4.922,8.5c0.001,0.009,0.002,0.018,0.003,0.026v0.001c0,0.001,0,0.001,0,0.002
			c0.006,0.053,0.012,0.107,0.019,0.16c0.044,0.342,0.066,0.757,0.066,1.234C268.374,173.843,265.457,178.288,260.927,180.251z
			 M266.569,135.716c-3.371-1.069-6.909-1.63-10.536-1.63c-3.641,0-7.195,0.566-10.578,1.642l-17.014-23.01
			c-7.855-10.622-8.993-24.009-3.044-35.808c5.95-11.799,17.39-18.843,30.602-18.843c21.226,0,34.365,17.884,34.365,34.455
			c0,7.195-2.351,14.18-6.797,20.198L266.569,135.716z M352.007,224.348c-6.196,10.734-17.268,17.142-29.617,17.142
			c-10.893,0-24.888-5.411-31.499-20.6l-11.419-26.219c5.314-4.836,9.041-11.217,10.589-18.296l28.399-3.226
			c13.128-1.486,25.294,4.222,32.535,15.275C358.236,199.475,358.614,212.904,352.007,224.348z"/>
	</g>
</g>
<g>
</g>
<g>
</g>
<g>
</g>
<g>
</g>
<g>
</g>
<g>
</g>
<g>
</g>
<g>
</g>
<g>
</g>
<g>
</g>
<g>
</g>
<g>
</g>
<g>
</g>
<g>
</g>
<g>
</g>
</svg>
